<svg xmlns="http://www.w3.org/2000/svg" viewBox="0 0 200 270" preserveAspectRatio="xMidYMid slice">
  
  <rect width="200" height="270" fill="oklch(0.42 0.10 280)"></rect>
  <g color="oklch(0.88 0.05 280)">
    <circle cx="100" cy="135" r="50" fill="currentColor" opacity="0.18"></circle>
    <rect x="98" y="0" width="4" height="270" fill="currentColor" opacity="0.08" transform="rotate(0 100 135)"></rect>
    <rect x="98" y="0" width="4" height="270" fill="currentColor" opacity="0.08" transform="rotate(15 100 135)"></rect>
    <rect x="98" y="0" width="4" height="270" fill="currentColor" opacity="0.08" transform="rotate(30 100 135)"></rect>
    <rect x="98" y="0" width="4" height="270" fill="currentColor" opacity="0.08" transform="rotate(45 100 135)"></rect>
    <rect x="98" y="0" width="4" height="270" fill="currentColor" opacity="0.08" transform="rotate(60 100 135)"></rect>
    <rect x="98" y="0" width="4" height="270" fill="currentColor" opacity="0.08" transform="rotate(75 100 135)"></rect>
    <rect x="98" y="0" width="4" height="270" fill="currentColor" opacity="0.08" transform="rotate(90 100 135)"></rect>
    <rect x="98" y="0" width="4" height="270" fill="currentColor" opacity="0.08" transform="rotate(105 100 135)"></rect>
    <rect x="98" y="0" width="4" height="270" fill="currentColor" opacity="0.08" transform="rotate(120 100 135)"></rect>
    <rect x="98" y="0" width="4" height="270" fill="currentColor" opacity="0.08" transform="rotate(135 100 135)"></rect>
    <rect x="98" y="0" width="4" height="270" fill="currentColor" opacity="0.08" transform="rotate(150 100 135)"></rect>
    <rect x="98" y="0" width="4" height="270" fill="currentColor" opacity="0.08" transform="rotate(165 100 135)"></rect>
  </g>
  
  <defs>
    <linearGradient id="foil-bg3" x1="0" y1="0" x2="1" y2="1">
      <stop offset="0%" stop-color="white" stop-opacity="0.18"></stop>
      <stop offset="35%" stop-color="white" stop-opacity="0"></stop>
      <stop offset="65%" stop-color="white" stop-opacity="0"></stop>
      <stop offset="100%" stop-color="black" stop-opacity="0.1"></stop>
    </linearGradient>
  </defs>
  <rect width="200" height="270" fill="url(#foil-bg3)"></rect>
</svg>